<?xml version="1.0" standalone="no"?>
<!DOCTYPE svg PUBLIC "-//W3C//DTD SVG 20010904//EN"
 "http://www.w3.org/TR/2001/REC-SVG-20010904/DTD/svg10.dtd">
<svg version="1.0" xmlns="http://www.w3.org/2000/svg"
 width="1800.000000pt" height="1800.000000pt" viewBox="0 0 1800.000000 1800.000000"
 preserveAspectRatio="xMidYMid meet">
<metadata>
Created by potrace 1.11, written by Peter Selinger 2001-2013
</metadata>
<g transform="translate(0.000000,1800.000000) scale(0.100000,-0.100000)"
fill="#000000" stroke="none">
<path d="M10229 14196 c-3 -3 -64 -10 -135 -15 -167 -13 -454 -61 -479 -81 -5
-4 -29 -11 -52 -15 -24 -4 -45 -10 -48 -15 -3 -4 -20 -11 -39 -14 -20 -4 -48
-13 -63 -21 -15 -8 -33 -15 -40 -15 -6 0 -24 -6 -40 -14 -15 -8 -91 -45 -168
-82 -77 -38 -142 -71 -145 -75 -3 -3 -27 -19 -55 -35 -27 -15 -54 -32 -60 -36
-5 -5 -51 -39 -102 -76 -136 -100 -340 -290 -415 -387 -12 -16 -27 -35 -33
-41 -5 -7 -26 -33 -45 -58 -32 -43 -38 -46 -70 -42 -219 30 -724 31 -905 2
-49 -8 -121 -18 -160 -22 -38 -3 -74 -9 -80 -13 -5 -3 -39 -11 -75 -18 -137
-25 -185 -36 -195 -43 -5 -4 -30 -11 -55 -15 -25 -4 -49 -11 -55 -15 -5 -4
-26 -11 -45 -15 -44 -9 -150 -43 -170 -54 -9 -5 -30 -12 -48 -15 -17 -4 -34
-12 -37 -17 -4 -5 -13 -9 -22 -9 -8 0 -29 -6 -46 -14 -82 -37 -126 -56 -132
-56 -13 0 -280 -134 -283 -142 -2 -4 -8 -8 -14 -8 -11 0 -249 -138 -258 -150
-3 -3 -23 -17 -45 -30 -22 -13 -59 -38 -81 -54 -23 -17 -52 -38 -64 -46 -12
-8 -28 -20 -34 -25 -6 -6 -42 -35 -81 -65 -38 -30 -83 -67 -100 -81 -176 -157
-287 -267 -395 -388 -41 -47 -82 -92 -90 -101 -23 -26 -100 -128 -144 -190
-21 -30 -42 -56 -47 -58 -5 -2 -9 -8 -9 -13 0 -9 -37 -67 -50 -79 -3 -3 -19
-27 -35 -54 -17 -27 -40 -65 -52 -85 -12 -20 -25 -43 -29 -51 -4 -8 -10 -17
-14 -20 -10 -8 -153 -289 -188 -370 -11 -25 -36 -88 -56 -140 -20 -52 -40
-102 -45 -110 -5 -9 -12 -31 -16 -50 -4 -19 -11 -39 -15 -45 -4 -5 -11 -26
-15 -45 -4 -19 -11 -39 -15 -45 -4 -5 -13 -30 -19 -55 -5 -25 -20 -83 -31
-130 -30 -120 -49 -212 -65 -310 -8 -47 -17 -96 -20 -110 -7 -33 -23 -179 -40
-375 -7 -88 -18 -214 -24 -280 -11 -128 -24 -269 -47 -537 -8 -93 -21 -246
-30 -340 -8 -95 -21 -245 -29 -333 -17 -194 -44 -497 -52 -582 l-5 -63 3763 0
3764 0 19 33 c30 51 143 277 166 332 12 28 25 59 30 70 39 88 50 116 50 129 0
8 4 17 9 20 5 3 14 28 21 56 7 28 16 52 20 55 5 3 11 23 15 45 4 22 10 42 15
45 4 3 11 25 14 50 4 24 11 47 16 50 4 3 11 28 15 55 4 27 10 52 15 55 4 3 11
26 14 52 4 27 11 59 16 73 11 29 37 187 51 305 5 44 14 100 20 125 25 110 21
638 -7 838 -6 44 -5 46 51 89 124 95 275 238 362 342 15 19 42 50 58 70 117
138 251 362 335 556 12 28 28 64 36 82 8 17 14 37 14 45 0 8 4 18 9 23 11 13
43 119 70 235 12 52 26 109 32 126 5 17 9 40 9 52 0 17 8 22 38 27 20 4 46 10
58 15 12 4 48 11 80 15 32 4 64 11 69 15 6 4 37 11 70 15 33 4 65 10 70 15 6
4 35 10 65 14 30 4 69 11 85 16 17 5 68 17 115 26 122 24 210 42 293 60 39 8
101 21 137 28 36 7 72 15 80 19 8 3 42 11 75 16 94 16 198 37 222 45 12 4 57
13 100 21 43 8 110 21 148 29 177 38 224 48 285 59 36 7 70 15 75 18 6 4 33
10 60 14 28 4 75 13 105 20 30 7 78 17 105 21 l50 8 -70 12 c-38 8 -115 23
-170 34 -55 12 -127 26 -160 31 -33 5 -69 14 -80 19 -11 5 -45 12 -75 16 -30
3 -59 9 -65 13 -5 3 -40 12 -77 19 -141 26 -213 40 -213 42 0 2 -165 34 -260
50 -33 6 -67 14 -75 19 -9 5 -40 12 -70 15 -30 4 -64 11 -75 16 -11 5 -47 14
-80 19 -33 6 -94 17 -135 26 -41 9 -118 24 -170 35 -52 11 -129 26 -170 35
-41 9 -104 22 -140 28 -36 7 -69 15 -75 19 -5 3 -37 9 -70 13 -33 4 -64 11
-70 15 -5 4 -34 11 -63 15 -48 6 -55 11 -67 39 -7 17 -16 50 -20 73 -4 24 -10
45 -15 48 -5 3 -11 23 -15 45 -4 22 -11 40 -16 40 -5 0 -9 7 -9 16 0 8 -9 36
-21 62 -11 26 -24 56 -29 67 -51 117 -162 325 -202 380 -242 325 -343 430
-582 608 -50 37 -95 71 -101 75 -24 19 -205 122 -214 122 -5 0 -11 3 -13 8 -3
8 -40 26 -133 67 -33 14 -68 30 -77 36 -10 5 -23 9 -30 9 -7 0 -25 6 -40 14
-15 8 -41 17 -59 21 -19 4 -40 11 -49 16 -23 12 -151 49 -171 49 -10 0 -28 5
-41 10 -32 14 -211 40 -343 50 -60 4 -135 11 -165 15 -30 4 -58 4 -61 1z m855
-985 c3 -4 23 -11 44 -15 72 -11 208 -96 272 -170 38 -44 110 -159 110 -176 0
-9 4 -20 9 -25 17 -18 34 -119 34 -205 0 -90 -14 -171 -38 -217 -8 -15 -15
-33 -15 -40 0 -6 -3 -13 -7 -15 -5 -1 -17 -20 -28 -42 -44 -86 -173 -194 -292
-244 -100 -42 -338 -46 -417 -7 -16 8 -33 15 -39 15 -25 0 -138 81 -197 141
-109 110 -168 257 -170 415 -1 165 96 360 230 466 62 48 156 97 202 104 21 4
41 11 44 15 3 5 61 9 129 9 68 0 126 -4 129 -9z"/>
<path d="M11196 7258 c-8 -13 -39 -63 -69 -113 -31 -49 -81 -124 -111 -165
-31 -41 -64 -86 -74 -99 -103 -142 -327 -385 -480 -523 l-42 -38 2332 0 2333
0 0 480 0 480 -1937 0 -1938 0 -14 -22z"/>
<path d="M3589 6298 c-1 -2 -7 -77 -15 -168 -7 -91 -20 -241 -28 -335 -8 -93
-20 -226 -26 -295 -6 -69 -15 -181 -21 -250 -7 -69 -15 -161 -18 -205 -4 -44
-9 -87 -12 -95 -2 -10 1 -13 11 -11 8 3 35 6 60 8 25 1 88 8 140 14 52 6 183
17 290 25 107 9 267 22 355 29 88 8 219 19 290 24 72 6 150 13 175 16 47 6
239 24 545 49 99 8 198 18 220 21 22 3 130 13 240 21 195 15 338 27 695 59
225 21 450 40 670 59 866 74 1177 104 1200 113 8 4 51 12 95 19 91 14 182 33
305 64 47 11 105 26 130 31 25 6 50 15 55 19 6 4 26 11 45 15 19 4 40 11 45
15 6 4 25 11 43 15 18 4 45 13 60 21 15 8 35 14 44 14 9 0 19 4 22 9 3 5 18
12 33 16 25 6 61 21 150 61 17 8 36 14 42 14 6 0 11 5 11 10 0 6 6 10 13 10 6
0 62 26 122 57 61 31 125 63 143 72 17 8 32 19 32 23 0 4 6 8 14 8 8 0 21 6
28 13 7 7 24 18 38 25 46 24 203 125 226 147 6 5 22 17 34 25 31 20 164 122
170 129 3 4 29 26 59 49 l54 42 -3392 0 c-1865 0 -3392 -1 -3392 -2z"/>
</g>
</svg>
