<svg version="1" xmlns="http://www.w3.org/2000/svg" width="933.333" height="933.333" viewBox="0 0 700.000000 700.000000"><path d="M399.8 71.5c-.2.2-3.7.6-7.8.9-12.9 1.2-30.2 6-43.5 12.1-6.7 3-20.5 10.7-23 12.7-.5.4-3.5 2.7-6.5 5-6.4 4.9-21 19.2-26.5 26.1-2.4 3.1-4.3 4.6-5.4 4.3-5-1.5-36.5-2.3-46.6-1.2-34 3.8-62.4 12.1-89.2 26.2-64 33.7-109.1 94.2-122.7 164.4-1.4 6.9-2.7 15.2-3.1 18.5-.4 3.3-.8 7.3-1 9-.2 1.6-.7 6.4-1 10.5-.3 4.1-.8 9.3-1 11.5-.4 4.6-1.3 14.2-2 23-.3 3.3-.7 8.2-1 11-.2 2.7-.7 8.1-1 12-.3 3.8-.8 9-1 11.5-.3 2.5-.7 7-1 10.1-.2 3-.7 8.4-1 12-.4 3.5-.8 8.6-1 11.4-.8 11.4-1.7 21.1-2 22.2-.3.7.1 1.3.8 1.4.7.1 102.2.2 225.6.3 148 .1 225.1-.2 226.4-.9 5.4-2.7 22.9-45.9 27.1-67 2.3-11.2 3.5-18.7 4.3-26 .9-8.3 1.1-39.7.2-47.5-.4-3.4-.2-5.8.5-6.5.6-.5 3.8-3.3 7.1-6 17.4-14.6 31.5-33.6 40.5-54.6 2.7-6.4 6.9-18.2 7.6-21.4 2.5-12.9 2.3-12.4 6.2-13.3 7.4-1.8 36.9-8 45.2-9.6 3.4-.6 11-2.2 19.5-4.1 3.9-.8 8.1-1.7 9.5-2 1.4-.2 12.4-2.5 24.5-5 12.1-2.6 23.1-4.9 24.5-5.1 1.4-.3 3.2-.7 4-.9.8-.2 2.9-.7 4.5-1 9.5-1.6 9.3-2-2.1-4.3-6-1.3-11.8-2.5-12.9-2.7-1.1-.2-8.5-1.8-16.5-3.4-8-1.6-19.9-4.2-26.5-5.6-6.6-1.4-13.1-2.8-14.5-3-1.4-.3-3.4-.7-4.5-.9-8.2-1.8-16.9-3.6-19.2-4.1-1.6-.2-8.2-1.6-14.8-3-6.6-1.4-13.5-2.8-15.2-3.1-1.8-.3-5.2-1.1-7.5-1.7-3.9-1.2-4.3-1.6-5.8-6.7-9-30.1-28.3-57.4-54.6-77.1-8.8-6.5-30.4-17.7-40.3-20.9-9.1-2.8-21.5-5.7-28.6-6.5-5.8-.7-27.2-1.4-27.7-1zm66.9 63.2c6.3 3.1 12.4 9.4 16.1 16.5 2.4 4.7 2.7 6.4 2.7 14.8s-.3 10.2-2.8 15.2c-10.7 21.9-38.6 27.1-56 10.5-3-2.9-6.2-6.7-7.2-8.6-4.8-9.5-5.4-20.4-1.6-30.2 4.1-10.8 16.4-20.5 27.5-21.6 2.8-.3 5.2-.6 5.4-.8.9-.8 11.5 2 15.9 4.2zM460.5 495c-8.3 13.2-18.7 26.1-31.2 38.9-6.2 6.3-11.3 11.6-11.3 11.7h140.8l140.7-.1.1-29.5.1-29.6H466l-5.5 8.6zM8 546c-.4.3-1.1 3.9-1.4 8-.4 4.1-.9 9.5-1.1 12-.2 2.5-.7 7.6-1 11.5-.3 3.8-.8 9-1 11.5-.2 2.5-.7 7-.9 10-.3 3-.8 9.1-1.2 13.5-1.3 15.1-1.2 16 1.6 15.9 3.7-.3 17.8-1.4 23-1.9 7.2-.7 13.9-1.4 22-2 7.8-.7 12.2-1 23-2 3.6-.3 9.2-.8 12.5-1.1 3.3-.2 8-.7 10.5-.9 2.5-.2 7.9-.7 12-1 4.1-.3 9.1-.8 11-1 1.9-.2 6.7-.7 10.5-1 7-.5 15.1-1.2 23.5-2 2.5-.2 7.9-.7 12-1 4.1-.3 9.1-.8 11-1 3.2-.4 6.1-.6 23-2 3-.3 8-.7 11-1 3-.2 8.7-.7 12.5-1 3.9-.4 9-.8 11.5-1 5.5-.5 15.9-1.4 22-2 2.5-.2 7.9-.6 12-1 8.4-.6 16.4-1.5 19-2 .9-.2 4.1-.6 7.1-1 17.6-2.3 27.7-4.7 46.9-11.3 23.2-7.9 50.9-23.1 68.5-37.7 2.8-2.3 6.1-4.9 7.5-5.8 2.2-1.5 2.3-1.7.5-1.8-8.4-.4-406.9-.3-407.5.1z"/></svg>